<?xml version="1.0" encoding="UTF-8"?>
<svg width="23px" height="10px" viewBox="0 0 23 10" version="1.1" xmlns="http://www.w3.org/2000/svg" xmlns:xlink="http://www.w3.org/1999/xlink">
    <!-- Generator: Sketch 61.2 (89653) - https://sketch.com -->
    <title>gif</title>
    <desc>Created with Sketch.</desc>
    <g id="🚦-components" stroke="none" stroke-width="1" fill="none" fill-rule="evenodd">
        <g id="button/square" transform="translate(-5.000000, -11.000000)" fill="#FFFFFF">
            <g id="button/gif" transform="translate(5.250000, 11.243243)">
                <path d="M8.51897133,1.43133333 L7.03009337,2.87533333 C6.36980835,2.26733333 5.56710893,2.10266667 4.95861097,2.10266667 C3.48267977,2.10266667 2.52461916,2.964 2.52461916,4.69933333 C2.52461916,5.83933333 3.13311712,7.24533333 4.95861097,7.24533333 C5.43764128,7.24533333 6.18855364,7.15666667 6.70642424,6.78933333 L6.70642424,5.64933333 L4.41484685,5.64933333 L4.41484685,3.686 L8.84264046,3.686 L8.84264046,7.62533333 C8.2729828,8.75266667 6.69347748,9.36066667 4.94566421,9.36066667 C1.35941032,9.36066667 -7.02046484e-14,7.01733333 -7.02046484e-14,4.69933333 C-7.02046484e-14,2.38133333 1.55361179,-2.01320442e-14 4.95861097,-2.01320442e-14 C6.21444717,-2.01320442e-14 7.32786896,0.253333333 8.51897133,1.43133333 Z M13.1838952,9.12 L10.6333825,9.12 L10.6333825,0.253333333 L13.1838952,0.253333333 L13.1838952,9.12 Z M17.9006061,9.12 L15.3630401,9.12 L15.3630401,0.253333333 L22.3154529,0.253333333 L22.3154529,2.356 L17.9006061,2.356 L17.9006061,4.01533333 L22.0435708,4.01533333 L22.0435708,6.06733333 L17.9006061,6.06733333 L17.9006061,9.12 Z" id="gif"></path>
            </g>
        </g>
    </g>
</svg>